<?xml version="1.0" encoding="utf-8" standalone="no"?>
<!DOCTYPE svg PUBLIC "-//W3C//DTD SVG 1.1//EN"
  "http://www.w3.org/Graphics/SVG/1.1/DTD/svg11.dtd">
<svg xmlns:xlink="http://www.w3.org/1999/xlink" width="360pt" height="360pt" viewBox="0 0 360 360" xmlns="http://www.w3.org/2000/svg" version="1.1">
 <metadata>
  <rdf:RDF xmlns:dc="http://purl.org/dc/elements/1.1/" xmlns:cc="http://creativecommons.org/ns#" xmlns:rdf="http://www.w3.org/1999/02/22-rdf-syntax-ns#">
   <cc:Work>
    <dc:type rdf:resource="http://purl.org/dc/dcmitype/StillImage"/>
    <dc:date>2024-09-28T15:17:42.449053</dc:date>
    <dc:format>image/svg+xml</dc:format>
    <dc:creator>
     <cc:Agent>
      <dc:title>Matplotlib v3.5.1, https://matplotlib.org/</dc:title>
     </cc:Agent>
    </dc:creator>
   </cc:Work>
  </rdf:RDF>
 </metadata>
 <defs>
  <style type="text/css">*{stroke-linejoin: round; stroke-linecap: butt}</style>
 </defs>
 <g id="figure_1">
  <g id="patch_1">
   <path d="M 0 360 
L 360 360 
L 360 0 
L 0 0 
z
" style="fill: #ffffff"/>
  </g>
  <g id="axes_1">
   <g id="patch_2">
    <path d="M 45 315 
L 324 315 
L 324 43.2 
L 45 43.2 
z
" style="fill: #ffffff"/>
   </g>
   <g id="matplotlib.axis_1">
    <g id="xtick_1">
     <g id="line2d_1">
      <defs>
       <path id="m912f0ac6c9" d="M 0 0 
L 0 3.5 
" style="stroke: #262626; stroke-width: 0.8"/>
      </defs>
      <g>
       <use xlink:href="#m912f0ac6c9" x="57.681818" y="315" style="fill: #262626; stroke: #262626; stroke-width: 0.8"/>
      </g>
     </g>
     <g id="text_1">
      <text style="fill: #262626; font: 10px 'sans-serif'; text-anchor: middle" x="57.681818" y="329.157812" transform="rotate(-0, 57.681818, 329.157812)">0.2</text>
     </g>
    </g>
    <g id="xtick_2">
     <g id="line2d_2">
      <g>
       <use xlink:href="#m912f0ac6c9" x="89.386364" y="315" style="fill: #262626; stroke: #262626; stroke-width: 0.8"/>
      </g>
     </g>
     <g id="text_2">
      <text style="fill: #262626; font: 10px 'sans-serif'; text-anchor: middle" x="89.386364" y="329.157812" transform="rotate(-0, 89.386364, 329.157812)">0.3</text>
     </g>
    </g>
    <g id="xtick_3">
     <g id="line2d_3">
      <g>
       <use xlink:href="#m912f0ac6c9" x="121.090909" y="315" style="fill: #262626; stroke: #262626; stroke-width: 0.8"/>
      </g>
     </g>
     <g id="text_3">
      <text style="fill: #262626; font: 10px 'sans-serif'; text-anchor: middle" x="121.090909" y="329.157812" transform="rotate(-0, 121.090909, 329.157812)">0.4</text>
     </g>
    </g>
    <g id="xtick_4">
     <g id="line2d_4">
      <g>
       <use xlink:href="#m912f0ac6c9" x="152.795455" y="315" style="fill: #262626; stroke: #262626; stroke-width: 0.8"/>
      </g>
     </g>
     <g id="text_4">
      <text style="fill: #262626; font: 10px 'sans-serif'; text-anchor: middle" x="152.795455" y="329.157812" transform="rotate(-0, 152.795455, 329.157812)">0.5</text>
     </g>
    </g>
    <g id="xtick_5">
     <g id="line2d_5">
      <g>
       <use xlink:href="#m912f0ac6c9" x="184.5" y="315" style="fill: #262626; stroke: #262626; stroke-width: 0.8"/>
      </g>
     </g>
     <g id="text_5">
      <text style="fill: #262626; font: 10px 'sans-serif'; text-anchor: middle" x="184.5" y="329.157812" transform="rotate(-0, 184.5, 329.157812)">0.6</text>
     </g>
    </g>
    <g id="xtick_6">
     <g id="line2d_6">
      <g>
       <use xlink:href="#m912f0ac6c9" x="216.204545" y="315" style="fill: #262626; stroke: #262626; stroke-width: 0.8"/>
      </g>
     </g>
     <g id="text_6">
      <text style="fill: #262626; font: 10px 'sans-serif'; text-anchor: middle" x="216.204545" y="329.157812" transform="rotate(-0, 216.204545, 329.157812)">0.7</text>
     </g>
    </g>
    <g id="xtick_7">
     <g id="line2d_7">
      <g>
       <use xlink:href="#m912f0ac6c9" x="247.909091" y="315" style="fill: #262626; stroke: #262626; stroke-width: 0.8"/>
      </g>
     </g>
     <g id="text_7">
      <text style="fill: #262626; font: 10px 'sans-serif'; text-anchor: middle" x="247.909091" y="329.157812" transform="rotate(-0, 247.909091, 329.157812)">0.8</text>
     </g>
    </g>
    <g id="xtick_8">
     <g id="line2d_8">
      <g>
       <use xlink:href="#m912f0ac6c9" x="279.613636" y="315" style="fill: #262626; stroke: #262626; stroke-width: 0.8"/>
      </g>
     </g>
     <g id="text_8">
      <text style="fill: #262626; font: 10px 'sans-serif'; text-anchor: middle" x="279.613636" y="329.157812" transform="rotate(-0, 279.613636, 329.157812)">0.9</text>
     </g>
    </g>
    <g id="xtick_9">
     <g id="line2d_9">
      <g>
       <use xlink:href="#m912f0ac6c9" x="311.318182" y="315" style="fill: #262626; stroke: #262626; stroke-width: 0.8"/>
      </g>
     </g>
     <g id="text_9">
      <text style="fill: #262626; font: 10px 'sans-serif'; text-anchor: middle" x="311.318182" y="329.157812" transform="rotate(-0, 311.318182, 329.157812)">1.0</text>
     </g>
    </g>
    <g id="text_10">
     <text style="fill: #262626; font: 14px 'sans-serif'; text-anchor: middle" x="184.5" y="345.16625" transform="rotate(-0, 184.5, 345.16625)">Pearson R correlation</text>
    </g>
   </g>
   <g id="matplotlib.axis_2">
    <g id="ytick_1">
     <g id="line2d_10">
      <defs>
       <path id="m764aea1fc7" d="M 0 0 
L -3.5 0 
" style="stroke: #262626; stroke-width: 0.8"/>
      </defs>
      <g>
       <use xlink:href="#m764aea1fc7" x="45" y="315" style="fill: #262626; stroke: #262626; stroke-width: 0.8"/>
      </g>
     </g>
     <g id="text_11">
      <text style="fill: #262626; font: 10px 'sans-serif'; text-anchor: end" x="38" y="318.578906" transform="rotate(-0, 38, 318.578906)">0</text>
     </g>
    </g>
    <g id="ytick_2">
     <g id="line2d_11">
      <g>
       <use xlink:href="#m764aea1fc7" x="45" y="267.503277" style="fill: #262626; stroke: #262626; stroke-width: 0.8"/>
      </g>
     </g>
     <g id="text_12">
      <text style="fill: #262626; font: 10px 'sans-serif'; text-anchor: end" x="38" y="271.082183" transform="rotate(-0, 38, 271.082183)">20</text>
     </g>
    </g>
    <g id="ytick_3">
     <g id="line2d_12">
      <g>
       <use xlink:href="#m764aea1fc7" x="45" y="220.006553" style="fill: #262626; stroke: #262626; stroke-width: 0.8"/>
      </g>
     </g>
     <g id="text_13">
      <text style="fill: #262626; font: 10px 'sans-serif'; text-anchor: end" x="38" y="223.585459" transform="rotate(-0, 38, 223.585459)">40</text>
     </g>
    </g>
    <g id="ytick_4">
     <g id="line2d_13">
      <g>
       <use xlink:href="#m764aea1fc7" x="45" y="172.50983" style="fill: #262626; stroke: #262626; stroke-width: 0.8"/>
      </g>
     </g>
     <g id="text_14">
      <text style="fill: #262626; font: 10px 'sans-serif'; text-anchor: end" x="38" y="176.088736" transform="rotate(-0, 38, 176.088736)">60</text>
     </g>
    </g>
    <g id="ytick_5">
     <g id="line2d_14">
      <g>
       <use xlink:href="#m764aea1fc7" x="45" y="125.013106" style="fill: #262626; stroke: #262626; stroke-width: 0.8"/>
      </g>
     </g>
     <g id="text_15">
      <text style="fill: #262626; font: 10px 'sans-serif'; text-anchor: end" x="38" y="128.592012" transform="rotate(-0, 38, 128.592012)">80</text>
     </g>
    </g>
    <g id="ytick_6">
     <g id="line2d_15">
      <g>
       <use xlink:href="#m764aea1fc7" x="45" y="77.516383" style="fill: #262626; stroke: #262626; stroke-width: 0.8"/>
      </g>
     </g>
     <g id="text_16">
      <text style="fill: #262626; font: 10px 'sans-serif'; text-anchor: end" x="38" y="81.095289" transform="rotate(-0, 38, 81.095289)">100</text>
     </g>
    </g>
    <g id="text_17">
     <text style="fill: #262626; font: 14px 'sans-serif'; text-anchor: middle" x="14.534687" y="179.1" transform="rotate(-90, 14.534687, 179.1)">Different Conditions</text>
    </g>
   </g>
   <g id="patch_3">
    <path d="M 57.681818 315 
L 64.022727 315 
L 64.022727 315 
L 57.681818 315 
z
" clip-path="url(#pcfafca5b54)" style="fill: #0000ff; opacity: 0.8"/>
   </g>
   <g id="patch_4">
    <path d="M 64.022727 315 
L 70.363636 315 
L 70.363636 315 
L 64.022727 315 
z
" clip-path="url(#pcfafca5b54)" style="fill: #0000ff; opacity: 0.8"/>
   </g>
   <g id="patch_5">
    <path d="M 70.363636 315 
L 76.704545 315 
L 76.704545 315 
L 70.363636 315 
z
" clip-path="url(#pcfafca5b54)" style="fill: #0000ff; opacity: 0.8"/>
   </g>
   <g id="patch_6">
    <path d="M 76.704545 315 
L 83.045455 315 
L 83.045455 315 
L 76.704545 315 
z
" clip-path="url(#pcfafca5b54)" style="fill: #0000ff; opacity: 0.8"/>
   </g>
   <g id="patch_7">
    <path d="M 83.045455 315 
L 89.386364 315 
L 89.386364 315 
L 83.045455 315 
z
" clip-path="url(#pcfafca5b54)" style="fill: #0000ff; opacity: 0.8"/>
   </g>
   <g id="patch_8">
    <path d="M 89.386364 315 
L 95.727273 315 
L 95.727273 315 
L 89.386364 315 
z
" clip-path="url(#pcfafca5b54)" style="fill: #0000ff; opacity: 0.8"/>
   </g>
   <g id="patch_9">
    <path d="M 95.727273 315 
L 102.068182 315 
L 102.068182 315 
L 95.727273 315 
z
" clip-path="url(#pcfafca5b54)" style="fill: #0000ff; opacity: 0.8"/>
   </g>
   <g id="patch_10">
    <path d="M 102.068182 315 
L 108.409091 315 
L 108.409091 315 
L 102.068182 315 
z
" clip-path="url(#pcfafca5b54)" style="fill: #0000ff; opacity: 0.8"/>
   </g>
   <g id="patch_11">
    <path d="M 108.409091 315 
L 114.75 315 
L 114.75 315 
L 108.409091 315 
z
" clip-path="url(#pcfafca5b54)" style="fill: #0000ff; opacity: 0.8"/>
   </g>
   <g id="patch_12">
    <path d="M 114.75 315 
L 121.090909 315 
L 121.090909 315 
L 114.75 315 
z
" clip-path="url(#pcfafca5b54)" style="fill: #0000ff; opacity: 0.8"/>
   </g>
   <g id="patch_13">
    <path d="M 121.090909 315 
L 127.431818 315 
L 127.431818 315 
L 121.090909 315 
z
" clip-path="url(#pcfafca5b54)" style="fill: #0000ff; opacity: 0.8"/>
   </g>
   <g id="patch_14">
    <path d="M 127.431818 315 
L 133.772727 315 
L 133.772727 315 
L 127.431818 315 
z
" clip-path="url(#pcfafca5b54)" style="fill: #0000ff; opacity: 0.8"/>
   </g>
   <g id="patch_15">
    <path d="M 133.772727 315 
L 140.113636 315 
L 140.113636 315 
L 133.772727 315 
z
" clip-path="url(#pcfafca5b54)" style="fill: #0000ff; opacity: 0.8"/>
   </g>
   <g id="patch_16">
    <path d="M 140.113636 315 
L 146.454545 315 
L 146.454545 315 
L 140.113636 315 
z
" clip-path="url(#pcfafca5b54)" style="fill: #0000ff; opacity: 0.8"/>
   </g>
   <g id="patch_17">
    <path d="M 146.454545 315 
L 152.795455 315 
L 152.795455 315 
L 146.454545 315 
z
" clip-path="url(#pcfafca5b54)" style="fill: #0000ff; opacity: 0.8"/>
   </g>
   <g id="patch_18">
    <path d="M 152.795455 315 
L 159.136364 315 
L 159.136364 315 
L 152.795455 315 
z
" clip-path="url(#pcfafca5b54)" style="fill: #0000ff; opacity: 0.8"/>
   </g>
   <g id="patch_19">
    <path d="M 159.136364 315 
L 165.477273 315 
L 165.477273 315 
L 159.136364 315 
z
" clip-path="url(#pcfafca5b54)" style="fill: #0000ff; opacity: 0.8"/>
   </g>
   <g id="patch_20">
    <path d="M 165.477273 315 
L 171.818182 315 
L 171.818182 315 
L 165.477273 315 
z
" clip-path="url(#pcfafca5b54)" style="fill: #0000ff; opacity: 0.8"/>
   </g>
   <g id="patch_21">
    <path d="M 171.818182 315 
L 178.159091 315 
L 178.159091 315 
L 171.818182 315 
z
" clip-path="url(#pcfafca5b54)" style="fill: #0000ff; opacity: 0.8"/>
   </g>
   <g id="patch_22">
    <path d="M 178.159091 315 
L 184.5 315 
L 184.5 315 
L 178.159091 315 
z
" clip-path="url(#pcfafca5b54)" style="fill: #0000ff; opacity: 0.8"/>
   </g>
   <g id="patch_23">
    <path d="M 184.5 315 
L 190.840909 315 
L 190.840909 312.625164 
L 184.5 312.625164 
z
" clip-path="url(#pcfafca5b54)" style="fill: #0000ff; opacity: 0.8"/>
   </g>
   <g id="patch_24">
    <path d="M 190.840909 315 
L 197.181818 315 
L 197.181818 312.625164 
L 190.840909 312.625164 
z
" clip-path="url(#pcfafca5b54)" style="fill: #0000ff; opacity: 0.8"/>
   </g>
   <g id="patch_25">
    <path d="M 197.181818 315 
L 203.522727 315 
L 203.522727 310.250328 
L 197.181818 310.250328 
z
" clip-path="url(#pcfafca5b54)" style="fill: #0000ff; opacity: 0.8"/>
   </g>
   <g id="patch_26">
    <path d="M 203.522727 315 
L 209.863636 315 
L 209.863636 296.001311 
L 203.522727 296.001311 
z
" clip-path="url(#pcfafca5b54)" style="fill: #0000ff; opacity: 0.8"/>
   </g>
   <g id="patch_27">
    <path d="M 209.863636 315 
L 216.204545 315 
L 216.204545 284.12713 
L 209.863636 284.12713 
z
" clip-path="url(#pcfafca5b54)" style="fill: #0000ff; opacity: 0.8"/>
   </g>
   <g id="patch_28">
    <path d="M 216.204545 315 
L 222.545455 315 
L 222.545455 277.002621 
L 216.204545 277.002621 
z
" clip-path="url(#pcfafca5b54)" style="fill: #0000ff; opacity: 0.8"/>
   </g>
   <g id="patch_29">
    <path d="M 222.545455 315 
L 228.886364 315 
L 228.886364 277.002621 
L 222.545455 277.002621 
z
" clip-path="url(#pcfafca5b54)" style="fill: #0000ff; opacity: 0.8"/>
   </g>
   <g id="patch_30">
    <path d="M 228.886364 315 
L 235.227273 315 
L 235.227273 284.12713 
L 228.886364 284.12713 
z
" clip-path="url(#pcfafca5b54)" style="fill: #0000ff; opacity: 0.8"/>
   </g>
   <g id="patch_31">
    <path d="M 235.227273 315 
L 241.568182 315 
L 241.568182 203.3827 
L 235.227273 203.3827 
z
" clip-path="url(#pcfafca5b54)" style="fill: #0000ff; opacity: 0.8"/>
   </g>
   <g id="patch_32">
    <path d="M 241.568182 315 
L 247.909091 315 
L 247.909091 172.50983 
L 241.568182 172.50983 
z
" clip-path="url(#pcfafca5b54)" style="fill: #0000ff; opacity: 0.8"/>
   </g>
   <g id="patch_33">
    <path d="M 247.909091 315 
L 254.25 315 
L 254.25 163.010485 
L 247.909091 163.010485 
z
" clip-path="url(#pcfafca5b54)" style="fill: #0000ff; opacity: 0.8"/>
   </g>
   <g id="patch_34">
    <path d="M 254.25 315 
L 260.590909 315 
L 260.590909 68.017038 
L 254.25 68.017038 
z
" clip-path="url(#pcfafca5b54)" style="fill: #0000ff; opacity: 0.8"/>
   </g>
   <g id="patch_35">
    <path d="M 260.590909 315 
L 266.931818 315 
L 266.931818 56.142857 
L 260.590909 56.142857 
z
" clip-path="url(#pcfafca5b54)" style="fill: #0000ff; opacity: 0.8"/>
   </g>
   <g id="patch_36">
    <path d="M 266.931818 315 
L 273.272727 315 
L 273.272727 239.005242 
L 266.931818 239.005242 
z
" clip-path="url(#pcfafca5b54)" style="fill: #0000ff; opacity: 0.8"/>
   </g>
   <g id="patch_37">
    <path d="M 273.272727 315 
L 279.613636 315 
L 279.613636 274.627785 
L 273.272727 274.627785 
z
" clip-path="url(#pcfafca5b54)" style="fill: #0000ff; opacity: 0.8"/>
   </g>
   <g id="patch_38">
    <path d="M 279.613636 315 
L 285.954545 315 
L 285.954545 274.627785 
L 279.613636 274.627785 
z
" clip-path="url(#pcfafca5b54)" style="fill: #0000ff; opacity: 0.8"/>
   </g>
   <g id="patch_39">
    <path d="M 285.954545 315 
L 292.295455 315 
L 292.295455 269.878113 
L 285.954545 269.878113 
z
" clip-path="url(#pcfafca5b54)" style="fill: #0000ff; opacity: 0.8"/>
   </g>
   <g id="patch_40">
    <path d="M 292.295455 315 
L 298.636364 315 
L 298.636364 250.879423 
L 292.295455 250.879423 
z
" clip-path="url(#pcfafca5b54)" style="fill: #0000ff; opacity: 0.8"/>
   </g>
   <g id="patch_41">
    <path d="M 298.636364 315 
L 304.977273 315 
L 304.977273 241.380079 
L 298.636364 241.380079 
z
" clip-path="url(#pcfafca5b54)" style="fill: #0000ff; opacity: 0.8"/>
   </g>
   <g id="patch_42">
    <path d="M 304.977273 315 
L 311.318182 315 
L 311.318182 279.377457 
L 304.977273 279.377457 
z
" clip-path="url(#pcfafca5b54)" style="fill: #0000ff; opacity: 0.8"/>
   </g>
   <g id="patch_43">
    <path d="M 45 315 
L 45 43.2 
" style="fill: none; stroke: #262626; stroke-width: 0.8; stroke-linejoin: miter; stroke-linecap: square"/>
   </g>
   <g id="patch_44">
    <path d="M 324 315 
L 324 43.2 
" style="fill: none; stroke: #262626; stroke-width: 0.8; stroke-linejoin: miter; stroke-linecap: square"/>
   </g>
   <g id="patch_45">
    <path d="M 45 315 
L 324 315 
" style="fill: none; stroke: #262626; stroke-width: 0.8; stroke-linejoin: miter; stroke-linecap: square"/>
   </g>
   <g id="patch_46">
    <path d="M 45 43.2 
L 324 43.2 
" style="fill: none; stroke: #262626; stroke-width: 0.8; stroke-linejoin: miter; stroke-linecap: square"/>
   </g>
   <g id="text_18">
    <text style="fill: #262626; font: 14px 'sans-serif'; text-anchor: middle" x="184.5" y="37.2" transform="rotate(-0, 184.5, 37.2)">Pearson R correlation between experiments</text>
   </g>
  </g>
  <g id="axes_2">
   <g id="matplotlib.axis_3">
    <g id="ytick_7">
     <g id="line2d_16">
      <defs>
       <path id="mb34286cc87" d="M 0 0 
L 3.5 0 
" style="stroke: #262626; stroke-width: 0.8"/>
      </defs>
      <g>
       <use xlink:href="#mb34286cc87" x="324" y="315" style="fill: #262626; stroke: #262626; stroke-width: 0.8"/>
      </g>
     </g>
     <g id="text_19">
      <text style="fill: #262626; font: 10px 'sans-serif'; text-anchor: start" x="331" y="318.578906" transform="rotate(-0, 331, 318.578906)">0</text>
     </g>
    </g>
    <g id="ytick_8">
     <g id="line2d_17">
      <g>
       <use xlink:href="#mb34286cc87" x="324" y="271.857143" style="fill: #262626; stroke: #262626; stroke-width: 0.8"/>
      </g>
     </g>
     <g id="text_20">
      <text style="fill: #262626; font: 10px 'sans-serif'; text-anchor: start" x="331" y="275.436049" transform="rotate(-0, 331, 275.436049)">1</text>
     </g>
    </g>
    <g id="ytick_9">
     <g id="line2d_18">
      <g>
       <use xlink:href="#mb34286cc87" x="324" y="228.714286" style="fill: #262626; stroke: #262626; stroke-width: 0.8"/>
      </g>
     </g>
     <g id="text_21">
      <text style="fill: #262626; font: 10px 'sans-serif'; text-anchor: start" x="331" y="232.293192" transform="rotate(-0, 331, 232.293192)">2</text>
     </g>
    </g>
    <g id="ytick_10">
     <g id="line2d_19">
      <g>
       <use xlink:href="#mb34286cc87" x="324" y="185.571429" style="fill: #262626; stroke: #262626; stroke-width: 0.8"/>
      </g>
     </g>
     <g id="text_22">
      <text style="fill: #262626; font: 10px 'sans-serif'; text-anchor: start" x="331" y="189.150335" transform="rotate(-0, 331, 189.150335)">3</text>
     </g>
    </g>
    <g id="ytick_11">
     <g id="line2d_20">
      <g>
       <use xlink:href="#mb34286cc87" x="324" y="142.428571" style="fill: #262626; stroke: #262626; stroke-width: 0.8"/>
      </g>
     </g>
     <g id="text_23">
      <text style="fill: #262626; font: 10px 'sans-serif'; text-anchor: start" x="331" y="146.007478" transform="rotate(-0, 331, 146.007478)">4</text>
     </g>
    </g>
    <g id="ytick_12">
     <g id="line2d_21">
      <g>
       <use xlink:href="#mb34286cc87" x="324" y="99.285714" style="fill: #262626; stroke: #262626; stroke-width: 0.8"/>
      </g>
     </g>
     <g id="text_24">
      <text style="fill: #262626; font: 10px 'sans-serif'; text-anchor: start" x="331" y="102.864621" transform="rotate(-0, 331, 102.864621)">5</text>
     </g>
    </g>
    <g id="ytick_13">
     <g id="line2d_22">
      <g>
       <use xlink:href="#mb34286cc87" x="324" y="56.142857" style="fill: #262626; stroke: #262626; stroke-width: 0.8"/>
      </g>
     </g>
     <g id="text_25">
      <text style="fill: #262626; font: 10px 'sans-serif'; text-anchor: start" x="331" y="59.721763" transform="rotate(-0, 331, 59.721763)">6</text>
     </g>
    </g>
    <g id="text_26">
     <text style="fill: #262626; font: 14px 'sans-serif'; text-anchor: middle" x="350.581875" y="179.1" transform="rotate(-90, 350.581875, 179.1)">Known Replicates</text>
    </g>
   </g>
   <g id="patch_47">
    <path d="M 57.681818 315 
L 64.022727 315 
L 64.022727 315 
L 57.681818 315 
z
" clip-path="url(#pcfafca5b54)" style="fill: #008000; opacity: 0.8"/>
   </g>
   <g id="patch_48">
    <path d="M 64.022727 315 
L 70.363636 315 
L 70.363636 315 
L 64.022727 315 
z
" clip-path="url(#pcfafca5b54)" style="fill: #008000; opacity: 0.8"/>
   </g>
   <g id="patch_49">
    <path d="M 70.363636 315 
L 76.704545 315 
L 76.704545 315 
L 70.363636 315 
z
" clip-path="url(#pcfafca5b54)" style="fill: #008000; opacity: 0.8"/>
   </g>
   <g id="patch_50">
    <path d="M 76.704545 315 
L 83.045455 315 
L 83.045455 315 
L 76.704545 315 
z
" clip-path="url(#pcfafca5b54)" style="fill: #008000; opacity: 0.8"/>
   </g>
   <g id="patch_51">
    <path d="M 83.045455 315 
L 89.386364 315 
L 89.386364 315 
L 83.045455 315 
z
" clip-path="url(#pcfafca5b54)" style="fill: #008000; opacity: 0.8"/>
   </g>
   <g id="patch_52">
    <path d="M 89.386364 315 
L 95.727273 315 
L 95.727273 315 
L 89.386364 315 
z
" clip-path="url(#pcfafca5b54)" style="fill: #008000; opacity: 0.8"/>
   </g>
   <g id="patch_53">
    <path d="M 95.727273 315 
L 102.068182 315 
L 102.068182 315 
L 95.727273 315 
z
" clip-path="url(#pcfafca5b54)" style="fill: #008000; opacity: 0.8"/>
   </g>
   <g id="patch_54">
    <path d="M 102.068182 315 
L 108.409091 315 
L 108.409091 315 
L 102.068182 315 
z
" clip-path="url(#pcfafca5b54)" style="fill: #008000; opacity: 0.8"/>
   </g>
   <g id="patch_55">
    <path d="M 108.409091 315 
L 114.75 315 
L 114.75 315 
L 108.409091 315 
z
" clip-path="url(#pcfafca5b54)" style="fill: #008000; opacity: 0.8"/>
   </g>
   <g id="patch_56">
    <path d="M 114.75 315 
L 121.090909 315 
L 121.090909 315 
L 114.75 315 
z
" clip-path="url(#pcfafca5b54)" style="fill: #008000; opacity: 0.8"/>
   </g>
   <g id="patch_57">
    <path d="M 121.090909 315 
L 127.431818 315 
L 127.431818 315 
L 121.090909 315 
z
" clip-path="url(#pcfafca5b54)" style="fill: #008000; opacity: 0.8"/>
   </g>
   <g id="patch_58">
    <path d="M 127.431818 315 
L 133.772727 315 
L 133.772727 315 
L 127.431818 315 
z
" clip-path="url(#pcfafca5b54)" style="fill: #008000; opacity: 0.8"/>
   </g>
   <g id="patch_59">
    <path d="M 133.772727 315 
L 140.113636 315 
L 140.113636 315 
L 133.772727 315 
z
" clip-path="url(#pcfafca5b54)" style="fill: #008000; opacity: 0.8"/>
   </g>
   <g id="patch_60">
    <path d="M 140.113636 315 
L 146.454545 315 
L 146.454545 315 
L 140.113636 315 
z
" clip-path="url(#pcfafca5b54)" style="fill: #008000; opacity: 0.8"/>
   </g>
   <g id="patch_61">
    <path d="M 146.454545 315 
L 152.795455 315 
L 152.795455 315 
L 146.454545 315 
z
" clip-path="url(#pcfafca5b54)" style="fill: #008000; opacity: 0.8"/>
   </g>
   <g id="patch_62">
    <path d="M 152.795455 315 
L 159.136364 315 
L 159.136364 315 
L 152.795455 315 
z
" clip-path="url(#pcfafca5b54)" style="fill: #008000; opacity: 0.8"/>
   </g>
   <g id="patch_63">
    <path d="M 159.136364 315 
L 165.477273 315 
L 165.477273 315 
L 159.136364 315 
z
" clip-path="url(#pcfafca5b54)" style="fill: #008000; opacity: 0.8"/>
   </g>
   <g id="patch_64">
    <path d="M 165.477273 315 
L 171.818182 315 
L 171.818182 315 
L 165.477273 315 
z
" clip-path="url(#pcfafca5b54)" style="fill: #008000; opacity: 0.8"/>
   </g>
   <g id="patch_65">
    <path d="M 171.818182 315 
L 178.159091 315 
L 178.159091 315 
L 171.818182 315 
z
" clip-path="url(#pcfafca5b54)" style="fill: #008000; opacity: 0.8"/>
   </g>
   <g id="patch_66">
    <path d="M 178.159091 315 
L 184.5 315 
L 184.5 315 
L 178.159091 315 
z
" clip-path="url(#pcfafca5b54)" style="fill: #008000; opacity: 0.8"/>
   </g>
   <g id="patch_67">
    <path d="M 184.5 315 
L 190.840909 315 
L 190.840909 315 
L 184.5 315 
z
" clip-path="url(#pcfafca5b54)" style="fill: #008000; opacity: 0.8"/>
   </g>
   <g id="patch_68">
    <path d="M 190.840909 315 
L 197.181818 315 
L 197.181818 315 
L 190.840909 315 
z
" clip-path="url(#pcfafca5b54)" style="fill: #008000; opacity: 0.8"/>
   </g>
   <g id="patch_69">
    <path d="M 197.181818 315 
L 203.522727 315 
L 203.522727 315 
L 197.181818 315 
z
" clip-path="url(#pcfafca5b54)" style="fill: #008000; opacity: 0.8"/>
   </g>
   <g id="patch_70">
    <path d="M 203.522727 315 
L 209.863636 315 
L 209.863636 315 
L 203.522727 315 
z
" clip-path="url(#pcfafca5b54)" style="fill: #008000; opacity: 0.8"/>
   </g>
   <g id="patch_71">
    <path d="M 209.863636 315 
L 216.204545 315 
L 216.204545 315 
L 209.863636 315 
z
" clip-path="url(#pcfafca5b54)" style="fill: #008000; opacity: 0.8"/>
   </g>
   <g id="patch_72">
    <path d="M 216.204545 315 
L 222.545455 315 
L 222.545455 315 
L 216.204545 315 
z
" clip-path="url(#pcfafca5b54)" style="fill: #008000; opacity: 0.8"/>
   </g>
   <g id="patch_73">
    <path d="M 222.545455 315 
L 228.886364 315 
L 228.886364 315 
L 222.545455 315 
z
" clip-path="url(#pcfafca5b54)" style="fill: #008000; opacity: 0.8"/>
   </g>
   <g id="patch_74">
    <path d="M 228.886364 315 
L 235.227273 315 
L 235.227273 315 
L 228.886364 315 
z
" clip-path="url(#pcfafca5b54)" style="fill: #008000; opacity: 0.8"/>
   </g>
   <g id="patch_75">
    <path d="M 235.227273 315 
L 241.568182 315 
L 241.568182 315 
L 235.227273 315 
z
" clip-path="url(#pcfafca5b54)" style="fill: #008000; opacity: 0.8"/>
   </g>
   <g id="patch_76">
    <path d="M 241.568182 315 
L 247.909091 315 
L 247.909091 315 
L 241.568182 315 
z
" clip-path="url(#pcfafca5b54)" style="fill: #008000; opacity: 0.8"/>
   </g>
   <g id="patch_77">
    <path d="M 247.909091 315 
L 254.25 315 
L 254.25 315 
L 247.909091 315 
z
" clip-path="url(#pcfafca5b54)" style="fill: #008000; opacity: 0.8"/>
   </g>
   <g id="patch_78">
    <path d="M 254.25 315 
L 260.590909 315 
L 260.590909 315 
L 254.25 315 
z
" clip-path="url(#pcfafca5b54)" style="fill: #008000; opacity: 0.8"/>
   </g>
   <g id="patch_79">
    <path d="M 260.590909 315 
L 266.931818 315 
L 266.931818 315 
L 260.590909 315 
z
" clip-path="url(#pcfafca5b54)" style="fill: #008000; opacity: 0.8"/>
   </g>
   <g id="patch_80">
    <path d="M 266.931818 315 
L 273.272727 315 
L 273.272727 271.857143 
L 266.931818 271.857143 
z
" clip-path="url(#pcfafca5b54)" style="fill: #008000; opacity: 0.8"/>
   </g>
   <g id="patch_81">
    <path d="M 273.272727 315 
L 279.613636 315 
L 279.613636 271.857143 
L 273.272727 271.857143 
z
" clip-path="url(#pcfafca5b54)" style="fill: #008000; opacity: 0.8"/>
   </g>
   <g id="patch_82">
    <path d="M 279.613636 315 
L 285.954545 315 
L 285.954545 315 
L 279.613636 315 
z
" clip-path="url(#pcfafca5b54)" style="fill: #008000; opacity: 0.8"/>
   </g>
   <g id="patch_83">
    <path d="M 285.954545 315 
L 292.295455 315 
L 292.295455 271.857143 
L 285.954545 271.857143 
z
" clip-path="url(#pcfafca5b54)" style="fill: #008000; opacity: 0.8"/>
   </g>
   <g id="patch_84">
    <path d="M 292.295455 315 
L 298.636364 315 
L 298.636364 99.285714 
L 292.295455 99.285714 
z
" clip-path="url(#pcfafca5b54)" style="fill: #008000; opacity: 0.8"/>
   </g>
   <g id="patch_85">
    <path d="M 298.636364 315 
L 304.977273 315 
L 304.977273 142.428571 
L 298.636364 142.428571 
z
" clip-path="url(#pcfafca5b54)" style="fill: #008000; opacity: 0.8"/>
   </g>
   <g id="patch_86">
    <path d="M 304.977273 315 
L 311.318182 315 
L 311.318182 56.142857 
L 304.977273 56.142857 
z
" clip-path="url(#pcfafca5b54)" style="fill: #008000; opacity: 0.8"/>
   </g>
   <g id="patch_87">
    <path d="M 45 315 
L 45 43.2 
" style="fill: none; stroke: #262626; stroke-width: 0.8; stroke-linejoin: miter; stroke-linecap: square"/>
   </g>
   <g id="patch_88">
    <path d="M 324 315 
L 324 43.2 
" style="fill: none; stroke: #262626; stroke-width: 0.8; stroke-linejoin: miter; stroke-linecap: square"/>
   </g>
   <g id="patch_89">
    <path d="M 45 315 
L 324 315 
" style="fill: none; stroke: #262626; stroke-width: 0.8; stroke-linejoin: miter; stroke-linecap: square"/>
   </g>
   <g id="patch_90">
    <path d="M 45 43.2 
L 324 43.2 
" style="fill: none; stroke: #262626; stroke-width: 0.8; stroke-linejoin: miter; stroke-linecap: square"/>
   </g>
  </g>
 </g>
 <defs>
  <clipPath id="pcfafca5b54">
   <rect x="45" y="43.2" width="279" height="271.8"/>
  </clipPath>
 </defs>
</svg>
